<svg width="48" height="48" viewBox="0 0 48 48" xmlns="http://www.w3.org/2000/svg">
<path d="M24 1C19.451 1 15.0042 2.34893 11.2219 4.8762C7.43956 7.40347 4.49159 10.9956 2.75078 15.1983C1.00997 19.401 0.554489 24.0255 1.44195 28.4871C2.32941 32.9486 4.51994 37.0468 7.73655 40.2634C10.9532 43.48 15.0514 45.6706 19.5129 46.558C23.9745 47.4455 28.599 46.99 32.8017 45.2492C37.0044 43.5084 40.5965 40.5604 43.1238 36.7781C45.6511 32.9958 47 28.549 47 24C47 20.9796 46.4051 17.9888 45.2492 15.1983C44.0934 12.4078 42.3992 9.87229 40.2634 7.73654C38.1277 5.60079 35.5922 3.90663 32.8017 2.75077C30.0112 1.59491 27.0204 1 24 1V1ZM24 42.4C20.3608 42.4 16.8034 41.3208 13.7775 39.299C10.7516 37.2772 8.39328 34.4035 7.00062 31.0414C5.60797 27.6792 5.24359 23.9796 5.95356 20.4103C6.66353 16.8411 8.41596 13.5625 10.9892 10.9892C13.5625 8.41595 16.8411 6.66352 20.4103 5.95355C23.9796 5.24358 27.6792 5.60796 31.0414 7.00061C34.4035 8.39327 37.2772 10.7516 39.299 13.7775C41.3208 16.8034 42.4 20.3608 42.4 24C42.4 28.88 40.4614 33.5601 37.0108 37.0107C33.5601 40.4614 28.88 42.4 24 42.4V42.4Z" />
<path d="M23.9999 10.2C21.865 10.2 19.8174 11.0481 18.3077 12.5578C16.7981 14.0674 15.95 16.115 15.95 18.25C15.95 18.86 16.1923 19.445 16.6236 19.8763C17.0549 20.3077 17.64 20.55 18.2499 20.55C18.8599 20.55 19.445 20.3077 19.8763 19.8763C20.3076 19.445 20.5499 18.86 20.5499 18.25C20.5499 17.5676 20.7523 16.9006 21.1314 16.3333C21.5105 15.7659 22.0493 15.3237 22.6797 15.0626C23.3101 14.8015 24.0038 14.7332 24.673 14.8663C25.3422 14.9994 25.957 15.328 26.4395 15.8105C26.922 16.293 27.2505 16.9077 27.3837 17.5769C27.5168 18.2462 27.4485 18.9398 27.1873 19.5702C26.9262 20.2006 26.484 20.7395 25.9167 21.1185C25.3493 21.4976 24.6823 21.7 23.9999 21.7C23.3899 21.7 22.8049 21.9423 22.3736 22.3736C21.9423 22.805 21.6999 23.39 21.6999 24V28.6C21.6999 29.21 21.9423 29.795 22.3736 30.2263C22.8049 30.6577 23.3899 30.9 23.9999 30.9C24.6099 30.9 25.195 30.6577 25.6263 30.2263C26.0576 29.795 26.2999 29.21 26.2999 28.6V25.932C28.1586 25.3892 29.7584 24.1929 30.8045 22.5635C31.8506 20.9341 32.2724 18.9815 31.9923 17.0656C31.7122 15.1497 30.749 13.3996 29.2803 12.1379C27.8115 10.8762 25.9362 10.188 23.9999 10.2V10.2Z" />
<path d="M23.9999 37.7999C25.2702 37.7999 26.2999 36.7702 26.2999 35.4999C26.2999 34.2297 25.2702 33.2 23.9999 33.2C22.7297 33.2 21.7 34.2297 21.7 35.4999C21.7 36.7702 22.7297 37.7999 23.9999 37.7999Z" />
</svg>