<svg width="48" height="48" viewBox="0 0 48 48" xmlns="http://www.w3.org/2000/svg">
<g clip-path="url(#clip0_3_22)">
<path fill-rule="evenodd" clip-rule="evenodd" d="M22.287 4.575C23.4268 4.47591 24.5731 4.47591 25.713 4.575C25.821 4.584 26.037 4.683 26.124 5.013L26.991 8.328C27.432 10.008 28.641 11.229 29.982 11.895C30.504 12.153 31.005 12.444 31.485 12.765C32.736 13.599 34.395 14.034 36.075 13.575L39.381 12.666C39.711 12.576 39.906 12.714 39.966 12.804C40.623 13.734 41.196 14.727 41.685 15.771C41.727 15.864 41.751 16.101 41.508 16.341L39.063 18.759C37.83 19.977 37.377 21.63 37.473 23.127C37.5099 23.7084 37.5099 24.2916 37.473 24.873C37.377 26.37 37.83 28.023 39.063 29.241L41.508 31.659C41.748 31.899 41.727 32.136 41.685 32.229C41.2005 33.2676 40.6252 34.2615 39.966 35.199C39.906 35.286 39.708 35.421 39.381 35.334L36.072 34.425C34.395 33.966 32.736 34.401 31.485 35.235C31.005 35.556 30.504 35.847 29.985 36.105C28.638 36.771 27.432 37.989 26.991 39.672L26.124 42.987C26.037 43.317 25.821 43.416 25.713 43.425C24.5731 43.5238 23.4269 43.5238 22.287 43.425C22.179 43.416 21.963 43.314 21.876 42.987L21.009 39.672C20.568 37.992 19.359 36.771 18.018 36.105C17.4989 35.8475 16.9968 35.5569 16.515 35.235C15.264 34.401 13.605 33.966 11.925 34.425L8.619 35.334C8.289 35.424 8.094 35.286 8.034 35.196C7.37488 34.2595 6.79965 33.2666 6.315 32.229C6.273 32.136 6.249 31.899 6.492 31.659L8.937 29.241C10.17 28.023 10.623 26.37 10.527 24.873C10.49 24.2916 10.49 23.7084 10.527 23.127C10.623 21.63 10.17 19.977 8.937 18.759L6.492 16.341C6.252 16.101 6.273 15.864 6.315 15.771C6.79877 14.732 7.37403 13.7381 8.034 12.801C8.094 12.714 8.292 12.576 8.619 12.666L11.928 13.575C13.605 14.034 15.264 13.599 16.515 12.765C16.995 12.444 17.496 12.153 18.015 11.895C19.362 11.229 20.568 10.011 21.009 8.328L21.876 5.013C21.963 4.683 22.179 4.584 22.287 4.575V4.575ZM24 0C23.292 0 22.59 0.03 21.897 0.09C19.668 0.285 18.027 1.935 17.523 3.873L16.653 7.191C16.602 7.389 16.419 7.665 16.02 7.863C15.3278 8.20556 14.6584 8.59237 14.016 9.021C13.647 9.267 13.317 9.291 13.116 9.234L9.81 8.328C7.878 7.797 5.634 8.388 4.35 10.218C3.53991 11.3705 2.83317 12.5922 2.238 13.869C1.293 15.894 1.905 18.135 3.327 19.542L5.772 21.96C5.922 22.104 6.066 22.401 6.036 22.842C5.98697 23.6132 5.98697 24.3868 6.036 25.158C6.066 25.599 5.922 25.896 5.772 26.04L3.327 28.458C1.905 29.865 1.293 32.106 2.238 34.131C2.838 35.415 3.546 36.636 4.35 37.785C5.634 39.612 7.878 40.203 9.81 39.675L13.119 38.766C13.317 38.709 13.647 38.733 14.016 38.979C14.655 39.408 15.324 39.795 16.02 40.137C16.419 40.335 16.602 40.611 16.656 40.809L17.523 44.127C18.03 46.065 19.668 47.715 21.897 47.907C23.2964 48.0287 24.7036 48.0287 26.103 47.907C28.332 47.715 29.973 46.065 30.477 44.127L31.347 40.809C31.398 40.611 31.581 40.335 31.98 40.137C32.6722 39.7945 33.3416 39.4077 33.984 38.979C34.353 38.733 34.683 38.709 34.884 38.766L38.19 39.672C40.122 40.203 42.366 39.612 43.65 37.782C44.454 36.636 45.165 35.415 45.762 34.131C46.707 32.106 46.095 29.865 44.67 28.458L42.228 26.04C42.078 25.896 41.934 25.599 41.964 25.158C42.0129 24.3868 42.0129 23.6132 41.964 22.842C41.934 22.401 42.081 22.104 42.228 21.96L44.67 19.542C46.095 18.135 46.707 15.894 45.762 13.869C45.1668 12.5913 44.46 11.3685 43.65 10.215C42.366 8.388 40.122 7.797 38.19 8.325L34.881 9.234C34.683 9.291 34.353 9.267 33.984 9.021C33.3416 8.59234 32.6722 8.20554 31.98 7.863C31.581 7.665 31.398 7.389 31.344 7.191L30.48 3.87C29.97 1.935 28.332 0.285 26.103 0.093C25.4037 0.0316147 24.702 0.00058559 24 0V0ZM28.5 24C28.5 25.1935 28.0259 26.3381 27.182 27.182C26.3381 28.0259 25.1935 28.5 24 28.5C22.8065 28.5 21.6619 28.0259 20.818 27.182C19.9741 26.3381 19.5 25.1935 19.5 24C19.5 22.8065 19.9741 21.6619 20.818 20.818C21.6619 19.9741 22.8065 19.5 24 19.5C25.1935 19.5 26.3381 19.9741 27.182 20.818C28.0259 21.6619 28.5 22.8065 28.5 24V24ZM33 24C33 26.3869 32.0518 28.6761 30.364 30.364C28.6761 32.0518 26.3869 33 24 33C21.613 33 19.3239 32.0518 17.636 30.364C15.9482 28.6761 15 26.3869 15 24C15 21.6131 15.9482 19.3239 17.636 17.636C19.3239 15.9482 21.613 15 24 15C26.3869 15 28.6761 15.9482 30.364 17.636C32.0518 19.3239 33 21.6131 33 24V24Z" />
</g>
<defs>
<clipPath id="clip0_3_22">
<rect width="48" height="48" fill="white"/>
</clipPath>
</defs>
</svg>
